<?xml version="1.0"?>
<svg xmlns="http://www.w3.org/2000/svg" xmlns:xlink="http://www.w3.org/1999/xlink" xmlns:svgjs="http://svgjs.com/svgjs" version="1.1" width="512" height="512" x="0" y="0" viewBox="0 0 512 512" style="enable-background:new 0 0 512 512" xml:space="preserve" class=""><g><path xmlns="http://www.w3.org/2000/svg" d="m103.987 478h321.2a6.756 6.756 0 0 0 2.678-.556 57.056 57.056 0 0 0 49.135-56.276v-134.886a6.54 6.54 0 0 0 -6.334-6.282h-95.666v-240a6 6 0 0 0 -6-6h-327.666a6.294 6.294 0 0 0 -6.334 6v369.347c0 37.853 31.131 68.653 68.987 68.653zm271.013-186h90v129.168a45 45 0 0 1 -90 0zm-328-246h316v375.168a56.755 56.755 0 0 0 21.968 44.832h-280.981c-31.238 0-56.987-25.415-56.987-56.653z" fill="#ffffff" data-original="#000000" style="" class=""/><path xmlns="http://www.w3.org/2000/svg" d="m426 331.333a6 6 0 0 0 6-6v-6.3a6 6 0 0 0 -12 0v6.3a6 6 0 0 0 6 6z" fill="#ffffff" data-original="#000000" style="" class=""/><path xmlns="http://www.w3.org/2000/svg" d="m426 417.333a6 6 0 0 0 6-6v-63a6 6 0 0 0 -12 0v63a6 6 0 0 0 6 6z" fill="#ffffff" data-original="#000000" style="" class=""/><path xmlns="http://www.w3.org/2000/svg" d="m85.191 186h225.709a6 6 0 0 0 0-12h-225.709a6 6 0 0 0 0 12z" fill="#ffffff" data-original="#000000" style="" class=""/><path xmlns="http://www.w3.org/2000/svg" d="m85.191 286h83.809a6 6 0 0 0 0-12h-83.809a6 6 0 0 0 0 12z" fill="#ffffff" data-original="#000000" style="" class=""/><path xmlns="http://www.w3.org/2000/svg" d="m85.191 422h83.537a6 6 0 1 0 0-12h-83.537a6 6 0 0 0 0 12z" fill="#ffffff" data-original="#000000" style="" class=""/><path xmlns="http://www.w3.org/2000/svg" d="m85.191 338h83.537a6 6 0 0 0 0-12h-83.537a6 6 0 0 0 0 12z" fill="#ffffff" data-original="#000000" style="" class=""/><path xmlns="http://www.w3.org/2000/svg" d="m85.191 380h83.537a6 6 0 1 0 0-12h-83.537a6 6 0 0 0 0 12z" fill="#ffffff" data-original="#000000" style="" class=""/><path xmlns="http://www.w3.org/2000/svg" d="m85.191 234h225.709a6 6 0 1 0 0-12h-225.709a6 6 0 0 0 0 12z" fill="#ffffff" data-original="#000000" style="" class=""/><path xmlns="http://www.w3.org/2000/svg" d="m91.5 137.753c2.809 0 5.5-1.151 5.5-3.456v-24.482l13.917 24.914c1.368 2.521 3.773 3.024 6.365 3.024 2.809 0 5.718-1.151 5.718-3.456v-45.797c0-2.376-2.691-3.384-5.5-3.384s-5.5 1.009-5.5 3.384v24.482l-11.765-22.25c-2.736-5.256-4.417-5.616-8.449-5.616-2.808.001-5.786 1.084-5.786 3.457v45.727c0 2.3 2.692 3.453 5.5 3.453z" fill="#ffffff" data-original="#000000" style="" class=""/><path xmlns="http://www.w3.org/2000/svg" d="m138.581 138h25.634c2.377 0 3.385-2.624 3.385-4.928 0-2.664-1.225-5.072-3.385-5.072h-19.215v-12h10.719c2.376 0 3.384-2.484 3.384-4.428 0-2.3-1.224-4.572-3.384-4.572h-10.719v-12h19.215c2.16 0 3.385-2.408 3.385-5.072 0-2.3-1.008-4.928-3.385-4.928h-25.634c-2.448 0-4.581 1.269-4.581 3.573v45.727c0 2.3 2.133 3.7 4.581 3.7z" fill="#ffffff" data-original="#000000" style="" class=""/><path xmlns="http://www.w3.org/2000/svg" d="m186.173 134.441c.792 2.52 4.1 3.745 7.416 3.745 3.241 0 6.7-1.225 7.273-3.745l3.744-17.066 3.745 17.066c.576 2.52 4.032 3.745 7.272 3.745 3.313 0 6.553-1.225 7.417-3.745l14.329-43.923a3.209 3.209 0 0 0 .144-.937c0-2.448-4.032-4.464-7.272-4.464-1.729 0-3.169.576-3.6 2.088l-10.941 36.939-5.688-24.338c-.432-1.944-2.952-2.952-5.4-2.952s-4.968 1.008-5.4 2.952l-5.689 24.338-10.951-36.939c-.432-1.512-1.872-2.088-3.6-2.088-3.24 0-7.273 2.016-7.273 4.464a3.209 3.209 0 0 0 .144.937z" fill="#ffffff" data-original="#000000" style="" class=""/><path xmlns="http://www.w3.org/2000/svg" d="m259.109 128.393c-6.7 0-8.857-5.329-12.241-5.329-2.736 0-4.9 3.6-4.9 6.049 0 4.752 7.92 9.361 17.353 9.361 10.441 0 18-5.617 18-15.986 0-18.145-22.827-16.778-22.827-23.978 0-2.232 2.089-4.321 7.2-4.321 5.9 0 7.273 2.737 9.865 2.737 3.168 0 4.465-3.961 4.465-5.905 0-5.616-10.513-6.336-14.33-6.336-9 0-18.433 4.1-18.433 14.905 0 16.849 22.826 15.337 22.826 24.05.007 3.46-3.666 4.753-6.978 4.753z" fill="#ffffff" data-original="#000000" style="" class=""/><path xmlns="http://www.w3.org/2000/svg" d="m310.624 273h-103.26a6.383 6.383 0 0 0 -6.364 6.364v26.636a6 6 0 0 0 12 0v-21h92v125h-92v-64a6 6 0 0 0 -12 0v69.914a6.1 6.1 0 0 0 6.086 6.086h103.814a6.116 6.116 0 0 0 6.1-6.1v-136.524a6.394 6.394 0 0 0 -6.376-6.376z" fill="#ffffff" data-original="#000000" style="" class=""/></g></svg>
