<?xml version="1.0"?>
<svg xmlns="http://www.w3.org/2000/svg" xmlns:xlink="http://www.w3.org/1999/xlink" xmlns:svgjs="http://svgjs.com/svgjs" version="1.1" width="512" height="512" x="0" y="0" viewBox="0 0 980 980" style="enable-background:new 0 0 512 512" xml:space="preserve"><g>
<g xmlns="http://www.w3.org/2000/svg">
	<path d="M25,794.4h930c13.8,0,25-11.201,25-25V609.799V370.2V210.6c0-13.8-11.2-25-25-25H25c-13.8,0-25,11.2-25,25v159.6V609.9   v159.6C0,783.199,11.2,794.4,25,794.4z M30,375.2h99.8V604.9H30V587h82V393H30V375.2z M505,560.699c32.7-6.9,57.3-35.9,57.3-70.7   c0-34.8-24.6-63.8-57.3-70.7v-15.6c41.2,7.1,72.6,43.1,72.6,86.3c0,43.2-31.399,79.2-72.6,86.299V560.699z M475,419.299   c-32.7,6.9-57.3,35.9-57.3,70.7c0,34.799,24.6,63.799,57.3,70.7v15.6c-41.2-7.1-72.6-43.1-72.6-86.299   c0-43.2,31.399-79.2,72.6-86.3V419.299z M950,393h-82v194h82v17.799h-99.8V375.2H950V393z M950,345.2H845.2c-13.8,0-25,11.2-25,25   v47.6h-11.3c-5.5,0-10,4.5-10,10v124.5c0,5.5,4.5,10,10,10h11.3V609.9c0,13.799,11.2,25,25,25H950v129.6H505V606.6   c57.8-7.4,102.6-56.9,102.6-116.6c0-59.7-44.8-109.2-102.6-116.6V215.6h445V345.2z M30,215.6h445v157.8   c-57.8,7.4-102.6,56.9-102.6,116.6c0,59.7,44.8,109.2,102.6,116.6V764.4H30V634.799h104.8c13.8,0,25-11.199,25-25v-47.6h11.3   c5.5,0,10-4.5,10-10V427.7c0-5.5-4.5-10-10-10h-11.3v-47.6c0-13.8-11.2-25-25-25H30V215.6z" fill="#ffffff" data-original="#000000" style=""/>
</g>
<g xmlns="http://www.w3.org/2000/svg">
</g>
<g xmlns="http://www.w3.org/2000/svg">
</g>
<g xmlns="http://www.w3.org/2000/svg">
</g>
<g xmlns="http://www.w3.org/2000/svg">
</g>
<g xmlns="http://www.w3.org/2000/svg">
</g>
<g xmlns="http://www.w3.org/2000/svg">
</g>
<g xmlns="http://www.w3.org/2000/svg">
</g>
<g xmlns="http://www.w3.org/2000/svg">
</g>
<g xmlns="http://www.w3.org/2000/svg">
</g>
<g xmlns="http://www.w3.org/2000/svg">
</g>
<g xmlns="http://www.w3.org/2000/svg">
</g>
<g xmlns="http://www.w3.org/2000/svg">
</g>
<g xmlns="http://www.w3.org/2000/svg">
</g>
<g xmlns="http://www.w3.org/2000/svg">
</g>
<g xmlns="http://www.w3.org/2000/svg">
</g>
</g></svg>
