<svg width="50" height="50" viewBox="0 0 50 50" fill="none" xmlns="http://www.w3.org/2000/svg">
<g clip-path="url(#clip0)">
<path d="M25 -0.0531311C11.1859 -0.0531311 -0.0546875 11.1844 -0.0546875 25C-0.0546875 38.8156 11.1859 50.0531 25 50.0531C38.8141 50.0531 50.0547 38.8156 50.0547 25C50.0547 11.1844 38.8141 -0.0531311 25 -0.0531311ZM25 48.3844C12.1062 48.3844 1.61719 37.8937 1.61719 25C1.61719 12.1062 12.1062 1.61562 25 1.61562C37.8937 1.61562 48.3828 12.1062 48.3828 25C48.3828 37.8937 37.8937 48.3844 25 48.3844Z" fill="white"/>
<path d="M30.4688 10.9375H26.3C20.9906 10.8844 20.3125 14.1703 20.3125 17.7266V20.3125H17.9688C17.8628 20.2983 17.755 20.3088 17.6538 20.3431C17.5526 20.3773 17.4606 20.4345 17.385 20.51C17.3095 20.5856 17.2523 20.6776 17.2181 20.7788C17.1838 20.88 17.1734 20.9878 17.1875 21.0937V25.7812C17.1734 25.8872 17.1838 25.9949 17.2181 26.0962C17.2523 26.1974 17.3095 26.2894 17.385 26.365C17.4606 26.4405 17.5526 26.4977 17.6538 26.5319C17.755 26.5662 17.8628 26.5766 17.9688 26.5625H20.3125V38.2812C20.2995 38.3874 20.3109 38.4951 20.3459 38.5961C20.3808 38.6971 20.4384 38.7889 20.5143 38.8642C20.5901 38.9396 20.6821 38.9967 20.7834 39.031C20.8846 39.0654 20.9924 39.0761 21.0984 39.0625H25.8719C26.3328 39.1156 26.7063 38.7422 26.5594 38.2812L26.5625 26.5625H30.4688C30.5747 26.5766 30.6825 26.5662 30.7837 26.5319C30.8849 26.4977 30.9769 26.4405 31.0525 26.365C31.128 26.2894 31.1852 26.1974 31.2194 26.0962C31.2537 25.9949 31.2642 25.8872 31.25 25.7812V21.0937C31.2642 20.9878 31.2537 20.88 31.2194 20.7788C31.1852 20.6776 31.128 20.5856 31.0525 20.51C30.9769 20.4345 30.8849 20.3773 30.7837 20.3431C30.6825 20.3088 30.5747 20.2983 30.4688 20.3125H26.5578L26.5625 17.9687C26.7141 16.9703 26.7141 17.1328 27.6406 17.1875H30.4359C30.6531 17.1391 30.8844 17.1656 31.0469 17.0078C31.2094 16.85 31.3031 16.6344 31.2484 16.4062V11.7187C31.2629 11.6129 31.2526 11.5051 31.2186 11.4039C31.1845 11.3026 31.1276 11.2106 31.0521 11.135C30.9766 11.0594 30.8847 11.0022 30.7835 10.968C30.6824 10.9337 30.5746 10.9233 30.4688 10.9375V10.9375ZM29.6328 15.5375L27.6734 15.4625C25.2469 15.4625 25.0438 16.7797 25.0438 18.1281L25.0375 21.0906C25.0373 21.2003 25.0587 21.309 25.1006 21.4104C25.1424 21.5118 25.2038 21.604 25.2813 21.6816C25.3588 21.7593 25.4509 21.8209 25.5522 21.8629C25.6535 21.9049 25.7622 21.9266 25.8719 21.9266H29.6875V24.9453H25.875C25.6536 24.9453 25.4412 25.0332 25.2845 25.1896C25.1277 25.346 25.0395 25.5582 25.0391 25.7797L25.0375 37.5H21.875V25.7812C21.875 25.3203 21.5609 24.9469 21.0984 24.9469H18.75V21.9281H21.0984C21.2081 21.9283 21.3167 21.9068 21.418 21.865C21.5194 21.8232 21.6115 21.7618 21.6891 21.6844C21.8453 21.5266 21.8734 21.3141 21.8734 21.0922V17.725C21.8734 14.2219 22.5813 12.5531 26.2984 12.5531H29.6313V15.5375H29.6328Z" fill="white"/>
</g>
<defs>
<clipPath id="clip0">
<rect width="50" height="50" fill="white"/>
</clipPath>
</defs>
</svg>
