<svg width="51" height="51" viewBox="0 0 51 51" fill="none" xmlns="http://www.w3.org/2000/svg">
<path d="M25.0547 0C11.2406 0 0 11.2375 0 25.0531C0 38.8688 11.2406 50.1063 25.0547 50.1063C38.8687 50.1063 50.1094 38.8688 50.1094 25.0531C50.1094 11.2375 38.8687 0 25.0547 0ZM25.0547 48.4375C12.1609 48.4375 1.67187 37.9469 1.67187 25.0531C1.67187 12.1594 12.1609 1.66875 25.0547 1.66875C37.9484 1.66875 48.4375 12.1594 48.4375 25.0531C48.4375 37.9469 37.9484 48.4375 25.0547 48.4375Z" fill="white"/>
<path d="M25 18.7708C23.8216 18.7708 22.6696 19.1068 21.6897 19.7364C20.7099 20.3659 19.9462 21.2607 19.4952 22.3075C19.0442 23.3544 18.9263 24.5064 19.1562 25.6177C19.3861 26.7291 19.9535 27.7499 20.7868 28.5511C21.6201 29.3524 22.6818 29.898 23.8376 30.1191C24.9934 30.3401 26.1914 30.2267 27.2802 29.7931C28.3689 29.3594 29.2995 28.6251 29.9542 27.683C30.6089 26.7408 30.9583 25.6331 30.9583 24.5C30.9565 22.9811 30.3282 21.5248 29.2112 20.4508C28.0942 19.3767 26.5797 18.7726 25 18.7708V18.7708ZM25 29.1875C24.0358 29.1875 23.0933 28.9126 22.2916 28.3975C21.4899 27.8824 20.8651 27.1504 20.4961 26.2938C20.1271 25.4373 20.0306 24.4948 20.2187 23.5855C20.4068 22.6762 20.8711 21.841 21.5529 21.1854C22.2346 20.5299 23.1033 20.0834 24.0489 19.9026C24.9946 19.7217 25.9748 19.8145 26.8656 20.1693C27.7564 20.5241 28.5177 21.1249 29.0534 21.8958C29.5891 22.6666 29.875 23.5729 29.875 24.5C29.8736 25.7428 29.3595 26.9343 28.4456 27.813C27.5316 28.6918 26.2925 29.1861 25 29.1875ZM30.9583 12H19.0417C17.1747 12.002 15.3849 12.716 14.0648 13.9854C12.7447 15.2547 12.0021 16.9757 12 18.7708V30.2292C12.0021 32.0243 12.7447 33.7453 14.0648 35.0146C15.3849 36.284 17.1747 36.998 19.0417 37H30.9583C32.8253 36.998 34.6151 36.284 35.9352 35.0146C37.2553 33.7453 37.9979 32.0243 38 30.2292V18.7708C37.9979 16.9757 37.2553 15.2547 35.9352 13.9854C34.6151 12.716 32.8253 12.002 30.9583 12V12ZM36.9167 30.2292C36.9149 31.7481 36.2865 33.2043 35.1695 34.2784C34.0525 35.3524 32.538 35.9566 30.9583 35.9583H19.0417C17.462 35.9566 15.9475 35.3524 14.8305 34.2784C13.7135 33.2043 13.0851 31.7481 13.0833 30.2292V18.7708C13.0851 17.2519 13.7135 15.7957 14.8305 14.7216C15.9475 13.6475 17.462 13.0434 19.0417 13.0417H30.9583C32.538 13.0434 34.0525 13.6475 35.1695 14.7216C36.2865 15.7957 36.9149 17.2519 36.9167 18.7708V30.2292ZM33.125 17.7292C33.125 17.9352 33.0615 18.1366 32.9424 18.3079C32.8234 18.4792 32.6542 18.6127 32.4562 18.6915C32.2583 18.7704 32.0405 18.791 31.8303 18.7508C31.6202 18.7106 31.4271 18.6114 31.2756 18.4657C31.1241 18.3201 31.021 18.1344 30.9791 17.9324C30.9373 17.7303 30.9588 17.5209 31.0408 17.3305C31.1228 17.1402 31.2616 16.9775 31.4398 16.8631C31.618 16.7486 31.8274 16.6875 32.0417 16.6875C32.3289 16.6878 32.6042 16.7977 32.8073 16.993C33.0104 17.1883 33.1246 17.453 33.125 17.7292V17.7292Z" fill="white"/>
</svg>
