<svg width="50" height="50" viewBox="0 0 50 50" fill="none" xmlns="http://www.w3.org/2000/svg">
<g clip-path="url(#clip0)">
<path d="M25 -0.0531235C11.1859 -0.0531235 -0.0546875 11.1844 -0.0546875 25C-0.0546875 38.8156 11.1859 50.0531 25 50.0531C38.8141 50.0531 50.0547 38.8156 50.0547 25C50.0547 11.1844 38.8141 -0.0531235 25 -0.0531235ZM25 48.3844C12.1062 48.3844 1.61719 37.8938 1.61719 25C1.61719 12.1063 12.1062 1.61563 25 1.61563C37.8937 1.61563 48.3828 12.1063 48.3828 25C48.3828 37.8938 37.8937 48.3844 25 48.3844Z" fill="white"/>
<path d="M38.7406 17.2594C38.9139 16.9386 39.0567 16.6022 39.1672 16.2547C39.2183 16.0935 39.2193 15.9206 39.1701 15.7588C39.121 15.597 39.0238 15.4539 38.8916 15.3485C38.7595 15.243 38.5984 15.1802 38.4297 15.1682C38.261 15.1561 38.0927 15.1956 37.9469 15.2813C37.1462 15.7569 36.2795 16.1113 35.375 16.3328C34.277 15.3418 32.851 14.7925 31.3719 14.7906C30.5683 14.7912 29.7731 14.9541 29.034 15.2695C28.2949 15.5848 27.6271 16.0462 27.0706 16.6259C26.5141 17.2056 26.0804 17.8916 25.7955 18.643C25.5106 19.3944 25.3803 20.1955 25.4125 20.9984C21.8985 20.5561 18.6896 18.7779 16.4516 16.0328C16.3658 15.9288 16.2562 15.8471 16.1321 15.7945C16.008 15.7419 15.873 15.72 15.7387 15.7308C15.6043 15.7415 15.4745 15.7845 15.3604 15.8561C15.2462 15.9278 15.151 16.0259 15.0828 16.1422C14.5704 17.0218 14.2918 18.018 14.2738 19.0358C14.2557 20.0536 14.4987 21.0591 14.9797 21.9563C14.8617 21.9762 14.7484 22.0175 14.6453 22.0781C14.519 22.1587 14.415 22.2698 14.3429 22.4011C14.2708 22.5325 14.2329 22.6799 14.2328 22.8297C14.2328 24.6031 15.0219 26.2313 16.2938 27.3375L16.2391 27.3922C16.143 27.5008 16.077 27.6326 16.0474 27.7745C16.0178 27.9164 16.0257 28.0636 16.0703 28.2016C16.3355 29.0289 16.7784 29.7884 17.3678 30.4267C17.9573 31.065 18.6791 31.5668 19.4828 31.8969C17.8322 32.7021 15.9849 33.0161 14.1609 32.8016C13.9734 32.7825 13.7849 32.8261 13.6249 32.9256C13.4648 33.0251 13.3423 33.1749 13.2766 33.3516C13.2134 33.5295 13.2122 33.7235 13.2732 33.9022C13.3342 34.0809 13.4537 34.2337 13.6125 34.3359C16.0922 35.9274 18.977 36.7729 21.9234 36.7719C31.5797 36.7719 37.3516 28.9281 37.3516 21.3453L37.35 21.0891C38.2858 20.3585 39.0987 19.4828 39.7578 18.4953C39.8576 18.346 39.9067 18.1686 39.8978 17.9892C39.8889 17.8099 39.8224 17.6381 39.7083 17.4995C39.5942 17.3608 39.4385 17.2626 39.2642 17.2194C39.0899 17.1761 38.9063 17.1901 38.7406 17.2594V17.2594ZM36.0141 20.0016C35.9007 20.0831 35.8095 20.1917 35.7489 20.3176C35.6883 20.4434 35.6602 20.5824 35.6672 20.7219C35.6766 20.9281 35.6813 21.1375 35.6813 21.3438C35.6813 28.1063 30.5359 35.1016 21.925 35.1016C20.3892 35.1023 18.8643 34.8445 17.4141 34.3391C19.1509 34.0062 20.7826 33.2614 22.1719 32.1672C22.3071 32.0606 22.4061 31.9148 22.4554 31.7497C22.5046 31.5847 22.5016 31.4085 22.4469 31.2452C22.3922 31.0819 22.2884 30.9395 22.1497 30.8374C22.0109 30.7353 21.8441 30.6786 21.6719 30.675C20.9982 30.6621 20.3369 30.4911 19.7414 30.1757C19.146 29.8604 18.6329 29.4094 18.2437 28.8594C18.6391 28.8328 19.0266 28.7672 19.4031 28.6656C19.5854 28.6169 19.7457 28.5077 19.858 28.3561C19.9702 28.2045 20.0278 28.0193 20.0213 27.8308C20.0148 27.6422 19.9445 27.4614 19.822 27.3179C19.6996 27.1744 19.5321 27.0767 19.3469 27.0406C18.586 26.8858 17.8815 26.5271 17.3087 26.0028C16.736 25.4785 16.3166 24.8084 16.0953 24.0641C16.5109 24.1688 16.9375 24.2297 17.3641 24.2438C17.7313 24.2422 18.0719 24.0172 18.1859 23.6641C18.3 23.3109 18.1656 22.9219 17.8547 22.7156C17.1195 22.2258 16.5534 21.521 16.2338 20.6974C15.9141 19.8738 15.8565 18.9716 16.0688 18.1141C18.7829 20.8989 22.4477 22.5573 26.3312 22.7578C26.6062 22.7594 26.8469 22.6609 27.0141 22.4594C27.1812 22.2578 27.2453 21.9906 27.1859 21.7344C26.9722 20.8141 27.0678 19.849 27.4579 18.9885C27.848 18.1279 28.5108 17.42 29.3438 16.9741C30.1768 16.5283 31.1335 16.3694 32.0658 16.5221C32.9982 16.6748 33.8543 17.1305 34.5016 17.8188C34.5986 17.9223 34.7203 17.9994 34.8554 18.0428C34.9904 18.0863 35.1343 18.0947 35.2734 18.0672C35.5313 18.0156 35.7859 17.9563 36.0375 17.8875C35.9241 17.9724 35.8062 18.0512 35.6844 18.1234C35.5223 18.2227 35.399 18.3742 35.3346 18.5529C35.2702 18.7317 35.2686 18.9271 35.3301 19.1069C35.3916 19.2866 35.5125 19.4401 35.6729 19.542C35.8333 19.6438 36.0236 19.688 36.2125 19.6672L36.4969 19.6313C36.3403 19.7602 36.1792 19.8838 36.0141 20.0016V20.0016Z" fill="white"/>
</g>
<defs>
<clipPath id="clip0">
<rect width="50" height="50" fill="white"/>
</clipPath>
</defs>
</svg>
