<svg width="51" height="51" viewBox="0 0 51 51" fill="none" xmlns="http://www.w3.org/2000/svg">
<path d="M25.0547 0C11.2406 0 0 11.2375 0 25.0531C0 38.8688 11.2406 50.1063 25.0547 50.1063C38.8687 50.1063 50.1094 38.8688 50.1094 25.0531C50.1094 11.2375 38.8687 0 25.0547 0ZM25.0547 48.4375C12.1609 48.4375 1.67187 37.9469 1.67187 25.0531C1.67187 12.1594 12.1609 1.66875 25.0547 1.66875C37.9484 1.66875 48.4375 12.1594 48.4375 25.0531C48.4375 37.9469 37.9484 48.4375 25.0547 48.4375Z" fill="white"/>
<path d="M30.0695 24.0023L22.9584 19.2173C22.8691 19.1572 22.7654 19.1227 22.6583 19.1175C22.5511 19.1123 22.4446 19.1365 22.35 19.1876C22.2555 19.2387 22.1764 19.3147 22.1213 19.4076C22.0662 19.5004 22.037 19.6067 22.037 19.7149V29.285C22.037 29.3933 22.0662 29.4995 22.1213 29.5924C22.1764 29.6853 22.2555 29.7613 22.35 29.8124C22.4446 29.8635 22.5511 29.8877 22.6583 29.8824C22.7654 29.8772 22.8691 29.8427 22.9584 29.7827L30.0695 24.9976C30.1506 24.943 30.2172 24.869 30.2632 24.7822C30.3092 24.6954 30.3333 24.5984 30.3333 24.5C30.3333 24.4015 30.3092 24.3046 30.2632 24.2178C30.2172 24.131 30.1506 24.057 30.0695 24.0023ZM23.2222 28.1674V20.8325L28.6726 24.5L23.2222 28.1674ZM40.1793 15.9476C40.0625 15.4894 39.8395 15.0657 39.5286 14.7116C39.2177 14.3575 38.8278 14.083 38.3911 13.911C33.3849 11.969 25.3366 11.9986 25.0037 12.0002C24.6639 11.9983 16.6153 11.9688 11.6087 13.9108C11.1721 14.0829 10.7823 14.3574 10.4714 14.7115C10.1606 15.0656 9.9376 15.4892 9.82089 15.9475C9.44637 17.3985 9 20.0604 9 24.5C9 28.9397 9.44637 31.6014 9.82074 33.0525C9.93748 33.5107 10.1605 33.9344 10.4714 34.2885C10.7823 34.6426 11.1722 34.9171 11.6089 35.0891C16.6151 37.031 24.6634 37.0016 24.9963 36.9997C25.0129 36.9997 25.0481 37 25.101 37C26.1207 37 33.631 36.9356 38.3913 35.0891C38.8279 34.917 39.2177 34.6426 39.5286 34.2885C39.8394 33.9344 40.0624 33.5107 40.1791 33.0525C40.5536 31.6014 41 28.9396 41 24.5C41 20.0602 40.5536 17.3985 40.1793 15.9475V15.9476ZM39.0323 32.751C38.9632 33.0254 38.8305 33.2792 38.6451 33.4915C38.4598 33.7039 38.227 33.8687 37.9661 33.9724C33.1699 35.8327 25.0852 35.8048 24.9963 35.8034C24.9148 35.8034 16.8301 35.8327 12.0339 33.9724C11.773 33.8687 11.5402 33.7038 11.3549 33.4914C11.1695 33.2791 11.0368 33.0252 10.9677 32.7509C10.6107 31.3676 10.1852 28.8131 10.1852 24.5C10.1852 20.187 10.6108 17.6324 10.9677 16.2489C11.0368 15.9746 11.1695 15.7208 11.3549 15.5084C11.5402 15.296 11.773 15.1312 12.0339 15.0275C16.8302 13.1672 24.9151 13.1968 25.0037 13.1965C25.0846 13.1955 33.1699 13.1671 37.9661 15.0275C38.227 15.1313 38.4598 15.2961 38.6451 15.5085C38.8305 15.7209 38.9632 15.9747 39.0323 16.2491C39.3893 17.6324 39.8148 20.1869 39.8148 24.5C39.8148 28.8129 39.3892 31.3676 39.0323 32.751V32.751Z" fill="white"/>
</svg>
